<svg data-v-fde0c5aa="" xmlns="http://www.w3.org/2000/svg" viewBox="0 0 300 300" class="iconLeft"><!----><defs data-v-fde0c5aa=""><!----></defs><rect data-v-fde0c5aa="" fill="#A5D2E4" x="0" y="0" width="300px" height="300px" class="logo-background-square"></rect><defs data-v-fde0c5aa=""><!----></defs><g data-v-fde0c5aa="" id="2fc180bf-8131-462b-9493-264ebd8aeb7d" fill="#BA8381" transform="matrix(3.1223901648812014,0,0,3.1223901648812014,70.00256847440644,126.39941452238314)"><path d="M2.09 7.54L2.09 7.54Q2.18 7.39 2.27 7.39L2.27 7.39Q2.35 7.40 2.41 7.54L2.41 7.54Q2.49 7.70 2.57 7.85Q2.65 8.00 2.72 8.17L2.72 8.17L2.81 8.38Q2.89 8.57 3.03 8.54L3.03 8.54Q3.04 8.54 3.08 8.53L3.08 8.53Q3.19 8.50 3.21 8.31L3.21 8.31Q3.23 8.26 3.23 8.20Q3.24 8.14 3.25 8.08L3.25 8.08Q3.27 7.97 3.29 7.88Q3.31 7.78 3.34 7.70L3.34 7.70Q3.36 7.64 3.40 7.55Q3.44 7.46 3.49 7.35L3.49 7.35Q3.64 7.02 3.75 6.68Q3.86 6.34 3.96 5.99L3.96 5.99L4.03 5.73Q4.08 5.54 4.14 5.48L4.14 5.48Q4.25 5.37 4.42 5.46L4.42 5.46Q4.55 5.54 4.48 5.74L4.48 5.74Q4.38 6.06 4.24 6.34L4.24 6.34Q4.20 6.42 4.18 6.51L4.18 6.51Q4.16 6.57 4.15 6.63Q4.13 6.69 4.11 6.75L4.11 6.75Q4.07 6.87 4.05 6.97Q4.03 7.06 4.01 7.14L4.01 7.14Q3.98 7.27 3.96 7.37Q3.94 7.46 3.92 7.51L3.92 7.51Q3.83 7.84 3.73 8.15Q3.62 8.46 3.50 8.76L3.50 8.76Q3.45 8.87 3.43 9.00Q3.40 9.12 3.38 9.23L3.38 9.23Q3.32 9.53 3.21 9.63L3.21 9.63Q3.13 9.68 3.04 9.68L3.04 9.68Q2.96 9.68 2.90 9.64Q2.83 9.60 2.78 9.53Q2.73 9.46 2.70 9.39Q2.67 9.31 2.65 9.24L2.65 9.24Q2.61 9.13 2.58 9.02Q2.56 8.91 2.52 8.79L2.52 8.79Q2.42 8.52 2.24 8.52L2.24 8.52Q2.06 8.52 1.98 8.70L1.98 8.70Q1.93 8.78 1.89 8.86Q1.86 8.93 1.84 8.99L1.84 8.99Q1.80 9.07 1.78 9.16Q1.76 9.24 1.74 9.32L1.74 9.32L1.74 9.33Q1.67 9.57 1.61 9.63L1.61 9.63Q1.56 9.67 1.41 9.67L1.41 9.67Q1.24 9.67 1.18 9.37L1.18 9.37Q1.16 9.28 1.14 9.22Q1.11 9.15 1.10 9.10L1.10 9.10Q0.94 8.75 0.83 8.39Q0.71 8.03 0.61 7.66L0.61 7.66Q0.54 7.44 0.48 7.21Q0.42 6.99 0.33 6.76L0.33 6.76Q0.28 6.61 0.23 6.47Q0.17 6.32 0.13 6.18L0.13 6.18Q0.10 6.10 0.07 6.01Q0.04 5.91 0.02 5.82L0.02 5.82Q-0.01 5.71-0.01 5.62L-0.01 5.62Q0.01 5.43 0.18 5.42L0.18 5.42Q0.35 5.41 0.40 5.61L0.40 5.61Q0.45 5.78 0.49 5.94Q0.53 6.10 0.60 6.27L0.60 6.27Q0.69 6.50 0.79 6.72Q0.89 6.93 0.95 7.17L0.95 7.17Q0.98 7.28 1.02 7.38Q1.05 7.48 1.09 7.58L1.09 7.58Q1.16 7.75 1.18 7.88L1.18 7.88Q1.20 7.98 1.22 8.09Q1.24 8.20 1.26 8.29L1.26 8.29Q1.33 8.54 1.48 8.55L1.48 8.55Q1.63 8.58 1.76 8.32L1.76 8.32Q1.81 8.22 1.86 8.13Q1.91 8.03 1.97 7.93L1.97 7.93Q2.02 7.84 2.07 7.63L2.07 7.63Q2.07 7.61 2.08 7.58Q2.08 7.56 2.09 7.54ZM8.33 7.54L8.33 7.54Q8.42 7.39 8.51 7.39L8.51 7.39Q8.59 7.40 8.65 7.54L8.65 7.54Q8.73 7.70 8.81 7.85Q8.89 8.00 8.96 8.17L8.96 8.17L9.05 8.38Q9.13 8.57 9.27 8.54L9.27 8.54Q9.28 8.54 9.32 8.53L9.32 8.53Q9.43 8.50 9.45 8.31L9.45 8.31Q9.47 8.26 9.47 8.20Q9.48 8.14 9.50 8.08L9.50 8.08Q9.52 7.97 9.53 7.88Q9.55 7.78 9.58 7.70L9.58 7.70Q9.60 7.64 9.64 7.55Q9.68 7.46 9.73 7.35L9.73 7.35Q9.88 7.02 9.99 6.68Q10.10 6.34 10.20 5.99L10.20 5.99L10.27 5.73Q10.32 5.54 10.38 5.48L10.38 5.48Q10.49 5.37 10.66 5.46L10.66 5.46Q10.79 5.54 10.73 5.74L10.73 5.74Q10.62 6.06 10.48 6.34L10.48 6.34Q10.45 6.42 10.42 6.51L10.42 6.51Q10.40 6.57 10.39 6.63Q10.37 6.69 10.35 6.75L10.35 6.75Q10.32 6.87 10.29 6.97Q10.27 7.06 10.25 7.14L10.25 7.14Q10.22 7.27 10.20 7.37Q10.18 7.46 10.17 7.51L10.17 7.51Q10.07 7.84 9.97 8.15Q9.86 8.46 9.74 8.76L9.74 8.76Q9.69 8.87 9.67 9.00Q9.65 9.12 9.62 9.23L9.62 9.23Q9.56 9.53 9.45 9.63L9.45 9.63Q9.37 9.68 9.28 9.68L9.28 9.68Q9.20 9.68 9.14 9.64Q9.07 9.60 9.02 9.53Q8.98 9.46 8.94 9.39Q8.91 9.31 8.89 9.24L8.89 9.24Q8.85 9.13 8.83 9.02Q8.80 8.91 8.76 8.79L8.76 8.79Q8.66 8.52 8.48 8.52L8.48 8.52Q8.31 8.52 8.22 8.70L8.22 8.70Q8.17 8.78 8.13 8.86Q8.10 8.93 8.08 8.99L8.08 8.99Q8.05 9.07 8.02 9.16Q8.00 9.24 7.98 9.32L7.98 9.32L7.98 9.33Q7.92 9.57 7.85 9.63L7.85 9.63Q7.80 9.67 7.65 9.67L7.65 9.67Q7.48 9.67 7.42 9.37L7.42 9.37Q7.40 9.28 7.38 9.22Q7.36 9.15 7.34 9.10L7.34 9.10Q7.18 8.75 7.07 8.39Q6.95 8.03 6.85 7.66L6.85 7.66Q6.78 7.44 6.72 7.21Q6.67 6.99 6.58 6.76L6.58 6.76Q6.52 6.61 6.47 6.47Q6.41 6.32 6.37 6.18L6.37 6.18Q6.34 6.10 6.31 6.01Q6.28 5.91 6.26 5.82L6.26 5.82Q6.23 5.71 6.23 5.62L6.23 5.62Q6.25 5.43 6.43 5.42L6.43 5.42Q6.59 5.41 6.64 5.61L6.64 5.61Q6.69 5.78 6.73 5.94Q6.77 6.10 6.84 6.27L6.84 6.27Q6.93 6.50 7.03 6.72Q7.13 6.93 7.19 7.17L7.19 7.17Q7.23 7.28 7.26 7.38Q7.29 7.48 7.33 7.58L7.33 7.58Q7.40 7.75 7.42 7.88L7.42 7.88Q7.44 7.98 7.46 8.09Q7.49 8.20 7.51 8.29L7.51 8.29Q7.57 8.54 7.72 8.55L7.72 8.55Q7.87 8.58 8.00 8.32L8.00 8.32Q8.05 8.22 8.10 8.13Q8.16 8.03 8.21 7.93L8.21 7.93Q8.26 7.84 8.31 7.63L8.31 7.63Q8.31 7.61 8.32 7.58Q8.33 7.56 8.33 7.54ZM18.00 5.86L18.00 5.87L18.02 5.89Q18.09 5.97 18.16 6.08Q18.22 6.19 18.28 6.33L18.28 6.33Q18.32 6.43 18.37 6.51Q18.42 6.60 18.46 6.69L18.46 6.69Q18.51 6.84 18.54 6.97Q18.57 7.09 18.57 7.20L18.57 7.20Q18.58 7.31 18.58 7.43Q18.57 7.56 18.55 7.72L18.55 7.72Q18.54 7.85 18.54 7.99Q18.54 8.12 18.51 8.26L18.51 8.26Q18.48 8.44 18.41 8.61Q18.33 8.78 18.24 8.94L18.24 8.94Q18.07 9.21 17.76 9.44L17.76 9.44L17.71 9.47Q17.63 9.52 17.58 9.53L17.58 9.53Q17.50 9.56 17.43 9.59Q17.36 9.61 17.30 9.63L17.30 9.63Q16.95 9.71 16.57 9.70Q16.19 9.69 15.84 9.69L15.84 9.69Q15.71 9.69 15.52 9.70Q15.34 9.70 15.23 9.63L15.23 9.63Q15.13 9.58 15.11 9.45L15.11 9.45Q15.10 9.42 15.10 9.33L15.10 9.33Q15.10 9.00 15.11 8.68Q15.11 8.35 15.13 8.03L15.13 8.03Q15.14 7.86 15.12 7.69Q15.10 7.51 15.10 7.34L15.10 7.34L15.10 6.63L15.10 6.06Q15.10 5.65 15.20 5.52L15.20 5.52Q15.31 5.41 15.54 5.41L15.54 5.41Q15.65 5.42 15.75 5.42Q15.85 5.41 15.93 5.41L15.93 5.41Q16.19 5.41 16.46 5.42Q16.73 5.43 17.01 5.45L17.01 5.45Q17.58 5.48 18.00 5.86L18.00 5.86ZM17.11 5.89L17.10 5.89L17.10 5.89Q17.00 5.87 16.86 5.87Q16.72 5.87 16.54 5.89L16.54 5.89Q16.20 5.91 16.02 5.88L16.02 5.88Q15.72 5.83 15.65 5.88L15.65 5.88Q15.54 5.95 15.54 6.17L15.54 6.17Q15.54 6.39 15.55 6.60Q15.56 6.82 15.54 7.02L15.54 7.02Q15.51 7.53 15.52 8.04Q15.53 8.54 15.53 9.04L15.53 9.04Q15.53 9.15 15.61 9.22L15.61 9.22Q15.70 9.30 15.93 9.26L15.93 9.26Q15.94 9.26 15.95 9.26Q15.96 9.26 15.97 9.26L15.97 9.26Q16.11 9.25 16.23 9.25Q16.34 9.26 16.45 9.26L16.45 9.26Q16.86 9.29 17.24 9.22L17.24 9.22Q17.62 9.14 17.83 8.72L17.83 8.72Q17.93 8.54 18.00 8.37Q18.07 8.20 18.12 8.02Q18.16 7.85 18.17 7.66Q18.18 7.48 18.16 7.26L18.16 7.26Q18.12 6.84 17.88 6.42L17.88 6.42Q17.77 6.22 17.57 6.09Q17.38 5.96 17.11 5.89L17.11 5.89ZM24.25 9.47L24.25 9.47Q24.25 9.65 24.10 9.69L24.10 9.69Q23.98 9.75 23.88 9.61L23.88 9.61Q23.84 9.54 23.81 9.49Q23.78 9.43 23.75 9.39L23.75 9.39Q23.66 9.18 23.58 9.03Q23.51 8.87 23.43 8.78L23.43 8.78Q23.27 8.55 23.07 8.49L23.07 8.49Q22.90 8.44 22.52 8.48L22.52 8.48Q22.31 8.50 22.11 8.51Q21.92 8.52 21.74 8.50L21.74 8.50Q21.34 8.48 21.15 8.76L21.15 8.76L21.14 8.78L21.13 8.79Q21.06 8.93 21.02 9.06Q20.97 9.19 20.91 9.32L20.91 9.32L20.77 9.54Q20.67 9.69 20.57 9.70L20.57 9.70Q20.52 9.72 20.43 9.65L20.43 9.65Q20.39 9.60 20.38 9.55Q20.37 9.49 20.38 9.43Q20.39 9.37 20.42 9.30Q20.44 9.24 20.46 9.19L20.46 9.19L20.62 8.85Q20.86 8.35 21.07 7.85Q21.28 7.34 21.51 6.83L21.51 6.83Q21.55 6.74 21.58 6.66Q21.62 6.58 21.65 6.51L21.65 6.51Q21.72 6.32 21.80 6.14Q21.88 5.95 21.97 5.76L21.97 5.76L22.07 5.61Q22.15 5.48 22.22 5.48L22.22 5.48Q22.29 5.46 22.39 5.59L22.39 5.59Q22.51 5.73 22.62 5.91Q22.72 6.10 22.80 6.26L22.80 6.26Q23.04 6.77 23.25 7.28Q23.45 7.79 23.69 8.28L23.69 8.28Q23.77 8.43 23.84 8.58Q23.91 8.74 23.99 8.88L23.99 8.88Q24.04 8.98 24.08 9.08Q24.12 9.17 24.17 9.27L24.17 9.27Q24.20 9.34 24.22 9.39Q24.24 9.44 24.25 9.47ZM22.89 7.56L22.89 7.56Q22.83 7.40 22.76 7.22Q22.70 7.05 22.61 6.88L22.61 6.88Q22.44 6.57 22.24 6.58L22.24 6.58Q22.17 6.58 22.11 6.62Q22.05 6.67 22.01 6.72Q21.97 6.78 21.94 6.85Q21.90 6.92 21.88 6.98L21.88 6.98Q21.81 7.18 21.74 7.40Q21.67 7.62 21.61 7.83L21.61 7.83Q21.56 7.98 21.62 8.05L21.62 8.05Q21.66 8.12 21.83 8.13L21.83 8.13Q21.98 8.14 22.10 8.15Q22.22 8.15 22.29 8.14L22.29 8.14Q22.44 8.14 22.69 8.10L22.69 8.10Q22.94 8.06 22.99 7.88L22.99 7.88Q23.01 7.77 22.96 7.69L22.96 7.69Q22.95 7.66 22.92 7.63Q22.90 7.59 22.89 7.56ZM28.93 9.08L28.93 9.08Q28.81 9.23 28.71 9.34Q28.60 9.45 28.49 9.53Q28.37 9.60 28.23 9.66Q28.09 9.71 27.91 9.73L27.91 9.73Q27.82 9.74 27.73 9.74Q27.63 9.75 27.52 9.73L27.52 9.73Q27.37 9.72 27.23 9.72Q27.08 9.72 26.93 9.69L26.93 9.69Q26.61 9.61 26.39 9.46Q26.17 9.31 26.05 9.07L26.05 9.07Q25.90 8.74 26.22 8.73L26.22 8.73Q26.28 8.73 26.35 8.81Q26.42 8.89 26.46 8.93L26.46 8.93Q26.61 9.07 26.63 9.08L26.63 9.08L26.63 9.08L26.63 9.09Q26.97 9.32 27.52 9.32L27.52 9.32L27.53 9.32L27.54 9.32Q27.77 9.32 28.13 9.23L28.13 9.23Q28.49 9.14 28.60 8.87L28.60 8.87Q28.66 8.70 28.60 8.51L28.60 8.51L28.60 8.50Q28.43 8.14 27.94 8.02L27.94 8.02L27.10 7.80Q26.92 7.76 26.67 7.63L26.67 7.63Q26.54 7.56 26.44 7.51Q26.35 7.45 26.28 7.40L26.28 7.40Q26.00 7.19 25.96 6.99L25.96 6.99Q25.95 6.95 25.95 6.89Q25.95 6.83 25.95 6.74L25.95 6.74Q25.95 6.64 25.96 6.55Q25.98 6.46 25.99 6.36L25.99 6.36Q26.03 6.04 26.26 5.80L26.26 5.80Q26.36 5.69 26.51 5.62Q26.65 5.55 26.79 5.49L26.79 5.49Q26.98 5.40 27.19 5.40Q27.40 5.39 27.60 5.40L27.60 5.40Q28.27 5.42 28.65 5.87L28.65 5.87Q28.82 6.08 28.78 6.22L28.78 6.22L28.73 6.26Q28.62 6.32 28.47 6.19L28.47 6.19Q28.43 6.16 28.40 6.13Q28.36 6.09 28.33 6.06L28.33 6.06Q28.29 6.02 28.24 5.98Q28.18 5.95 28.12 5.91L28.12 5.91L28.10 5.90L28.08 5.90Q27.83 5.82 27.57 5.81Q27.30 5.80 27.02 5.86L27.02 5.86Q26.69 5.93 26.51 6.14Q26.33 6.34 26.33 6.67L26.33 6.67L26.33 6.69L26.34 6.70Q26.37 7.12 27.00 7.30L27.00 7.30L27.19 7.36L27.70 7.53Q27.82 7.57 27.93 7.62Q28.05 7.67 28.18 7.72L28.18 7.72Q28.37 7.81 28.53 7.90Q28.70 7.98 28.83 8.07L28.83 8.07Q28.93 8.13 28.98 8.22Q29.03 8.31 29.05 8.41Q29.07 8.51 29.06 8.62Q29.06 8.73 29.04 8.82L29.04 8.82Q29.03 8.89 28.99 8.96Q28.96 9.03 28.93 9.08ZM32.25 7.01L32.25 7.01Q32.50 7.01 32.74 7.02Q32.99 7.03 33.24 7.07L33.24 7.07Q33.43 7.10 33.53 6.99L33.53 6.99Q33.61 6.90 33.60 6.78Q33.60 6.66 33.60 6.55L33.60 6.55Q33.61 6.38 33.61 6.25Q33.61 6.13 33.61 6.04L33.61 6.04Q33.61 6.00 33.61 5.93Q33.61 5.87 33.62 5.79Q33.62 5.72 33.63 5.65Q33.64 5.58 33.66 5.54L33.66 5.54Q33.72 5.40 33.89 5.41L33.89 5.41Q34.06 5.43 34.06 5.72L34.06 5.72Q34.06 5.89 34.04 6.06Q34.03 6.23 34.04 6.40L34.04 6.40L34.04 6.41Q34.04 6.68 34.06 6.95Q34.07 7.23 34.08 7.49L34.08 7.49Q34.10 7.66 34.08 7.82Q34.07 7.99 34.07 8.16L34.07 8.16Q34.06 8.44 34.06 8.73Q34.06 9.01 34.06 9.30L34.06 9.30Q34.06 9.55 34.02 9.63L34.02 9.63Q33.99 9.67 33.91 9.69L33.91 9.69Q33.66 9.75 33.63 9.47L33.63 9.47Q33.59 9.13 33.60 8.77Q33.61 8.42 33.60 8.06L33.60 8.06Q33.59 7.93 33.57 7.77Q33.54 7.62 33.43 7.52L33.43 7.52Q33.33 7.44 33.08 7.44L33.08 7.44Q32.96 7.44 32.84 7.44Q32.72 7.45 32.59 7.44L32.59 7.44L32.20 7.44Q32.08 7.45 31.96 7.44Q31.84 7.43 31.72 7.42L31.72 7.42Q31.46 7.40 31.33 7.49L31.33 7.49Q31.17 7.63 31.17 7.95L31.17 7.95Q31.17 8.16 31.18 8.38Q31.19 8.59 31.19 8.80L31.19 8.80Q31.19 8.97 31.18 9.10Q31.17 9.22 31.17 9.31L31.17 9.31Q31.17 9.41 31.16 9.47Q31.15 9.54 31.14 9.59L31.14 9.59Q31.06 9.73 30.90 9.69L30.90 9.69Q30.73 9.67 30.73 9.44L30.73 9.44Q30.73 9.21 30.73 9.00Q30.73 8.78 30.74 8.55L30.74 8.55Q30.75 8.34 30.74 8.12Q30.73 7.91 30.73 7.69L30.73 7.69Q30.73 7.34 30.74 6.99Q30.75 6.64 30.75 6.30L30.75 6.30Q30.75 6.24 30.75 6.15Q30.74 6.05 30.73 5.91L30.73 5.91Q30.72 5.61 30.75 5.54L30.75 5.54Q30.84 5.41 30.96 5.41L30.96 5.41Q31.17 5.42 31.19 5.74L31.19 5.74Q31.19 5.82 31.20 5.88Q31.20 5.94 31.20 5.99L31.20 5.99Q31.20 6.02 31.20 6.08Q31.20 6.15 31.19 6.23L31.19 6.23Q31.17 6.33 31.16 6.43Q31.14 6.54 31.14 6.63L31.14 6.63Q31.13 6.85 31.23 6.93L31.23 6.93Q31.33 7.01 31.50 6.98L31.50 6.98Q31.60 6.97 31.66 6.97Q31.73 6.97 31.78 6.97L31.78 6.97Q31.90 6.98 32.01 6.99Q32.13 7.01 32.25 7.01ZM38.71 6.86L38.71 6.86Q38.68 6.90 38.67 6.96Q38.66 7.01 38.64 7.05L38.64 7.05Q38.60 7.19 38.66 7.27L38.66 7.27Q38.68 7.30 38.81 7.37L38.81 7.37Q38.87 7.41 38.96 7.53L38.96 7.53Q39.31 7.97 39.18 8.71L39.18 8.71Q39.11 9.13 38.78 9.42L38.78 9.42Q38.54 9.64 38.42 9.66L38.42 9.66Q38.36 9.67 38.26 9.68Q38.15 9.69 37.99 9.69L37.99 9.69Q37.74 9.70 37.49 9.71Q37.24 9.71 37.00 9.71L37.00 9.71Q36.79 9.71 36.64 9.71Q36.48 9.71 36.38 9.70L36.38 9.70Q36.33 9.70 36.21 9.69Q36.10 9.67 36.06 9.65L36.06 9.65L36.04 9.60Q36.03 9.58 36.02 9.55Q36.01 9.52 36.00 9.50L36.00 9.50Q35.99 9.43 35.99 9.32L35.99 9.32L35.99 8.96L35.99 8.39Q35.99 8.24 35.98 8.10Q35.97 7.96 35.97 7.81L35.97 7.81Q35.98 7.49 35.99 7.18Q35.99 6.87 35.98 6.54L35.98 6.54Q35.98 6.36 35.99 6.17Q36.00 5.97 36.02 5.79L36.02 5.79Q36.03 5.73 36.02 5.65Q36.02 5.58 36.03 5.50L36.03 5.50Q36.06 5.46 36.07 5.46L36.07 5.46Q36.13 5.41 36.25 5.41Q36.37 5.41 36.46 5.41L36.46 5.41Q36.54 5.41 36.64 5.42Q36.73 5.43 36.83 5.43L36.83 5.43Q37.00 5.43 37.20 5.44Q37.40 5.46 37.62 5.48L37.62 5.48Q38.06 5.52 38.36 5.75L38.36 5.75Q38.70 6.02 38.73 6.60L38.73 6.60Q38.73 6.69 38.71 6.86ZM36.43 8.01L36.43 8.54Q36.43 8.63 36.43 8.72Q36.44 8.81 36.44 8.90L36.44 8.90Q36.45 9.15 36.53 9.20L36.53 9.20Q36.55 9.21 36.61 9.24Q36.67 9.26 36.77 9.27L36.77 9.27Q36.84 9.28 36.91 9.28Q36.98 9.28 37.06 9.29L37.06 9.29Q37.13 9.29 37.23 9.30Q37.34 9.32 37.48 9.32L37.48 9.32Q37.67 9.32 37.86 9.30Q38.05 9.27 38.25 9.21L38.25 9.21Q38.64 9.11 38.75 8.67L38.75 8.67L38.75 8.66Q38.77 8.57 38.78 8.46Q38.79 8.35 38.78 8.24Q38.77 8.13 38.73 8.03Q38.70 7.93 38.64 7.85L38.64 7.85L38.63 7.84Q38.53 7.74 38.40 7.68Q38.27 7.62 38.12 7.60Q37.98 7.57 37.83 7.57Q37.69 7.57 37.56 7.57L37.56 7.57Q37.46 7.59 37.37 7.59Q37.27 7.60 37.18 7.61L37.18 7.61Q37.08 7.62 37.01 7.62Q36.93 7.62 36.87 7.62L36.87 7.62Q36.62 7.62 36.54 7.69L36.54 7.69Q36.43 7.79 36.43 8.01L36.43 8.01ZM38.23 6.46L38.22 6.43L38.22 6.42Q38.16 6.23 38.07 6.12Q37.97 6.01 37.85 5.94Q37.73 5.88 37.58 5.86Q37.43 5.84 37.24 5.84L37.24 5.84Q37.03 5.84 36.82 5.86L36.82 5.86Q36.54 5.89 36.46 6.04L36.46 6.04Q36.41 6.14 36.43 6.27Q36.46 6.39 36.46 6.50L36.46 6.50Q36.47 6.56 36.47 6.64Q36.46 6.73 36.45 6.83L36.45 6.83Q36.43 7.03 36.50 7.12L36.50 7.12Q36.54 7.18 36.61 7.22Q36.68 7.25 36.76 7.26Q36.85 7.27 36.93 7.27Q37.01 7.27 37.07 7.27L37.07 7.27Q37.20 7.27 37.34 7.27Q37.49 7.26 37.66 7.24L37.66 7.24Q38.01 7.18 38.17 6.96L38.17 6.96Q38.23 6.87 38.24 6.76Q38.25 6.65 38.24 6.52L38.24 6.52L38.23 6.46ZM42.43 9.69L42.43 9.69Q42.29 9.65 42.15 9.58Q42.01 9.52 41.88 9.43Q41.75 9.34 41.63 9.24Q41.51 9.13 41.43 9.01L41.43 9.01Q41.32 8.84 41.28 8.66Q41.23 8.48 41.14 8.29L41.14 8.29Q41.07 8.13 41.06 7.96L41.06 7.96Q41.06 7.88 41.05 7.79Q41.04 7.70 41.04 7.62L41.04 7.62Q41.03 7.54 41.03 7.48Q41.02 7.42 41.02 7.38L41.02 7.38Q41.02 7.25 41.04 7.11Q41.06 6.97 41.09 6.82L41.09 6.82Q41.10 6.77 41.13 6.69L41.13 6.69Q41.20 6.49 41.31 6.31Q41.41 6.13 41.55 5.97L41.55 5.97Q41.82 5.67 42.29 5.43L42.29 5.43Q42.51 5.34 42.75 5.35L42.75 5.35Q42.90 5.36 43.05 5.39L43.05 5.39Q43.18 5.41 43.27 5.42Q43.36 5.43 43.43 5.44L43.43 5.44Q43.96 5.50 44.36 5.91L44.36 5.91Q44.45 6.00 44.53 6.10Q44.60 6.21 44.68 6.33L44.68 6.33L44.71 6.38Q44.72 6.41 44.73 6.42Q44.73 6.43 44.74 6.45L44.74 6.45Q44.86 6.72 44.95 7.13L44.95 7.13Q45.04 7.51 44.98 7.83L44.98 7.83Q44.94 8.02 44.88 8.19Q44.82 8.36 44.77 8.53L44.77 8.53Q44.50 9.45 43.57 9.69L43.57 9.69L43.51 9.70Q43.46 9.71 43.37 9.73Q43.29 9.74 43.18 9.75L43.18 9.75Q43.00 9.78 42.82 9.76Q42.63 9.75 42.43 9.69ZM43.13 5.78L43.12 5.78Q42.75 5.78 42.45 5.87Q42.16 5.95 41.92 6.19L41.92 6.19Q41.59 6.52 41.50 6.92Q41.41 7.32 41.51 7.81L41.51 7.81L41.57 8.15Q41.58 8.24 41.60 8.30Q41.61 8.36 41.62 8.37L41.62 8.37Q41.66 8.52 41.78 8.66Q41.90 8.80 42.01 8.90L42.01 8.90Q42.06 8.96 42.12 9.02Q42.17 9.08 42.23 9.13L42.23 9.13Q42.33 9.21 42.57 9.29L42.57 9.29L42.58 9.29Q42.71 9.32 42.87 9.31Q43.03 9.30 43.23 9.26L43.23 9.26Q43.33 9.23 43.43 9.22Q43.52 9.21 43.63 9.18L43.63 9.18Q43.88 9.12 44.05 8.91L44.05 8.91L44.06 8.91L44.06 8.90Q44.17 8.77 44.24 8.57L44.24 8.57Q44.31 8.37 44.34 8.32L44.34 8.32Q44.69 7.65 44.45 6.87L44.45 6.87L44.44 6.86Q44.41 6.79 44.39 6.72Q44.36 6.65 44.31 6.58L44.31 6.58Q44.04 6.18 43.67 6.00L43.67 6.00Q43.66 6.00 43.61 5.97Q43.57 5.94 43.48 5.89L43.48 5.89Q43.35 5.81 43.13 5.78L43.13 5.78ZM50.69 9.47L50.69 9.47Q50.69 9.65 50.54 9.69L50.54 9.69Q50.42 9.75 50.33 9.61L50.33 9.61Q50.28 9.54 50.25 9.49Q50.22 9.43 50.20 9.39L50.20 9.39Q50.10 9.18 50.03 9.03Q49.95 8.87 49.88 8.78L49.88 8.78Q49.71 8.55 49.51 8.49L49.51 8.49Q49.34 8.44 48.97 8.48L48.97 8.48Q48.75 8.50 48.55 8.51Q48.36 8.52 48.18 8.50L48.18 8.50Q47.78 8.48 47.59 8.76L47.59 8.76L47.58 8.78L47.57 8.79Q47.50 8.93 47.46 9.06Q47.41 9.19 47.35 9.32L47.35 9.32L47.21 9.54Q47.11 9.69 47.01 9.70L47.01 9.70Q46.96 9.72 46.87 9.65L46.87 9.65Q46.83 9.60 46.82 9.55Q46.81 9.49 46.82 9.43Q46.83 9.37 46.86 9.30Q46.88 9.24 46.90 9.19L46.90 9.19L47.07 8.85Q47.30 8.35 47.51 7.85Q47.72 7.34 47.95 6.83L47.95 6.83Q48.00 6.74 48.03 6.66Q48.06 6.58 48.09 6.51L48.09 6.51Q48.17 6.32 48.24 6.14Q48.32 5.95 48.41 5.76L48.41 5.76L48.51 5.61Q48.59 5.48 48.66 5.48L48.66 5.48Q48.73 5.46 48.84 5.59L48.84 5.59Q48.95 5.73 49.06 5.91Q49.16 6.10 49.24 6.26L49.24 6.26Q49.48 6.77 49.69 7.28Q49.90 7.79 50.13 8.28L50.13 8.28Q50.21 8.43 50.28 8.58Q50.35 8.74 50.44 8.88L50.44 8.88Q50.48 8.98 50.52 9.08Q50.57 9.17 50.61 9.27L50.61 9.27Q50.64 9.34 50.66 9.39Q50.68 9.44 50.69 9.47ZM49.33 7.56L49.33 7.56Q49.27 7.40 49.20 7.22Q49.14 7.05 49.05 6.88L49.05 6.88Q48.88 6.57 48.69 6.58L48.69 6.58Q48.61 6.58 48.55 6.62Q48.49 6.67 48.45 6.72Q48.41 6.78 48.38 6.85Q48.34 6.92 48.32 6.98L48.32 6.98Q48.25 7.18 48.18 7.40Q48.11 7.62 48.05 7.83L48.05 7.83Q48.00 7.98 48.06 8.05L48.06 8.05Q48.10 8.12 48.28 8.13L48.28 8.13Q48.43 8.14 48.54 8.15Q48.66 8.15 48.73 8.14L48.73 8.14Q48.88 8.14 49.13 8.10L49.13 8.10Q49.38 8.06 49.43 7.88L49.43 7.88Q49.45 7.77 49.40 7.69L49.40 7.69Q49.39 7.66 49.37 7.63Q49.34 7.59 49.33 7.56ZM55.10 5.67L55.10 5.67Q55.24 5.82 55.33 5.99Q55.41 6.16 55.50 6.34L55.50 6.34Q55.60 6.54 55.56 6.74Q55.52 6.94 55.34 7.13L55.34 7.13Q55.19 7.28 54.86 7.37L54.86 7.37Q54.74 7.40 54.60 7.44Q54.46 7.48 54.40 7.60L54.40 7.60Q54.36 7.72 54.42 7.84L54.42 7.84Q54.49 7.97 54.53 8.05Q54.57 8.13 54.60 8.18L54.60 8.18Q54.63 8.24 54.69 8.33Q54.74 8.42 54.82 8.52L54.82 8.52Q54.97 8.74 55.15 8.93Q55.32 9.13 55.50 9.30L55.50 9.30L55.54 9.34Q55.69 9.49 55.54 9.63L55.54 9.63Q55.38 9.79 55.24 9.64L55.24 9.64Q55.13 9.52 55.04 9.43Q54.95 9.34 54.87 9.26L54.87 9.26Q54.71 9.05 54.56 8.83L54.56 8.83Q54.46 8.67 54.36 8.53Q54.25 8.39 54.15 8.23L54.15 8.23Q53.88 7.74 53.48 7.58L53.48 7.58Q53.05 7.42 52.85 7.70L52.85 7.70Q52.79 7.80 52.79 7.92L52.79 7.92L52.79 9.40L52.79 9.49Q52.79 9.69 52.58 9.70L52.58 9.70Q52.36 9.69 52.36 9.44L52.36 9.44Q52.36 9.28 52.37 9.12Q52.38 8.95 52.39 8.76L52.39 8.76Q52.40 8.63 52.39 8.49Q52.38 8.35 52.38 8.22L52.38 8.22Q52.38 8.09 52.38 7.96Q52.39 7.83 52.39 7.70L52.39 7.70Q52.40 7.40 52.37 7.07L52.37 7.07Q52.37 6.84 52.38 6.61Q52.39 6.38 52.38 6.14L52.38 6.14Q52.38 6.02 52.38 5.86Q52.38 5.71 52.42 5.58L52.42 5.58Q52.54 5.42 53.00 5.42L53.00 5.42L53.21 5.42Q53.46 5.42 53.71 5.44Q53.96 5.46 54.20 5.45L54.20 5.45Q54.77 5.42 55.10 5.67ZM53.18 7.15L53.18 7.15Q53.44 7.16 53.63 7.16Q53.83 7.16 53.97 7.14L53.97 7.14Q54.10 7.13 54.26 7.11Q54.42 7.09 54.61 7.05L54.61 7.05Q55.00 6.97 55.12 6.69L55.12 6.69Q55.17 6.59 55.15 6.47L55.15 6.47Q55.14 6.34 55.07 6.24Q55.01 6.14 54.91 6.07Q54.81 6.00 54.69 5.94Q54.58 5.89 54.47 5.87L54.47 5.87Q54.18 5.82 53.90 5.83Q53.61 5.84 53.33 5.82L53.33 5.82Q53.27 5.82 53.22 5.82Q53.17 5.82 53.12 5.82L53.12 5.82Q52.97 5.81 52.90 5.89L52.90 5.89Q52.83 5.96 52.85 6.08L52.85 6.08Q52.86 6.12 52.86 6.23L52.86 6.23Q52.85 6.33 52.83 6.43Q52.81 6.52 52.81 6.62L52.81 6.62Q52.77 6.88 52.87 7.01L52.87 7.01Q52.96 7.14 53.18 7.15ZM60.27 5.86L60.27 5.87L60.29 5.89Q60.37 5.97 60.43 6.08Q60.50 6.19 60.55 6.33L60.55 6.33Q60.59 6.43 60.65 6.51Q60.70 6.60 60.73 6.69L60.73 6.69Q60.79 6.84 60.81 6.97Q60.84 7.09 60.85 7.20L60.85 7.20Q60.85 7.31 60.85 7.43Q60.85 7.56 60.83 7.72L60.83 7.72Q60.81 7.85 60.81 7.99Q60.81 8.12 60.79 8.26L60.79 8.26Q60.75 8.44 60.68 8.61Q60.61 8.78 60.51 8.94L60.51 8.94Q60.34 9.21 60.03 9.44L60.03 9.44L59.98 9.47Q59.90 9.52 59.85 9.53L59.85 9.53Q59.77 9.56 59.71 9.59Q59.64 9.61 59.58 9.63L59.58 9.63Q59.22 9.71 58.84 9.70Q58.47 9.69 58.11 9.69L58.11 9.69Q57.98 9.69 57.80 9.70Q57.61 9.70 57.50 9.63L57.50 9.63Q57.41 9.58 57.38 9.45L57.38 9.45Q57.37 9.42 57.37 9.33L57.37 9.33Q57.37 9.00 57.38 8.68Q57.39 8.35 57.40 8.03L57.40 8.03Q57.42 7.86 57.39 7.69Q57.37 7.51 57.37 7.34L57.37 7.34L57.37 6.63L57.37 6.06Q57.37 5.65 57.48 5.52L57.48 5.52Q57.59 5.41 57.81 5.41L57.81 5.41Q57.93 5.42 58.03 5.42Q58.13 5.41 58.20 5.41L58.20 5.41Q58.46 5.41 58.73 5.42Q59.00 5.43 59.29 5.45L59.29 5.45Q59.85 5.48 60.27 5.86L60.27 5.86ZM59.38 5.89L59.38 5.89L59.37 5.89Q59.27 5.87 59.13 5.87Q58.99 5.87 58.81 5.89L58.81 5.89Q58.47 5.91 58.29 5.88L58.29 5.88Q57.99 5.83 57.92 5.88L57.92 5.88Q57.82 5.95 57.82 6.17L57.82 6.17Q57.82 6.39 57.83 6.60Q57.83 6.82 57.82 7.02L57.82 7.02Q57.78 7.53 57.79 8.04Q57.80 8.54 57.80 9.04L57.80 9.04Q57.80 9.15 57.89 9.22L57.89 9.22Q57.97 9.30 58.21 9.26L58.21 9.26Q58.21 9.26 58.23 9.26Q58.24 9.26 58.24 9.26L58.24 9.26Q58.38 9.25 58.50 9.25Q58.62 9.26 58.73 9.26L58.73 9.26Q59.14 9.29 59.51 9.22L59.51 9.22Q59.90 9.14 60.11 8.72L60.11 8.72Q60.20 8.54 60.28 8.37Q60.35 8.20 60.39 8.02Q60.43 7.85 60.44 7.66Q60.45 7.48 60.43 7.26L60.43 7.26Q60.39 6.84 60.16 6.42L60.16 6.42Q60.04 6.22 59.85 6.09Q59.65 5.96 59.38 5.89L59.38 5.89Z"></path></g><defs data-v-fde0c5aa=""><!----></defs><g data-v-fde0c5aa="" id="aa803d7e-43ab-41da-929c-12905b853bd6" stroke="none" fill="#F7D5D4" transform="matrix(0.20696761671399497,0,0,0.20696761671399497,40,139.65161916430026)"><path d="M69.978 30.022l.013-.014L41 0 12.01 30.009l.013.014C4.598 37.446 0 47.696 0 59c0 22.607 18.393 41 41 41s41-18.393 41-41c0-11.304-4.598-21.554-12.022-28.978zm-48.069 9.887L41 19.8l19.091 20.109-.008.008C64.972 44.807 68 51.557 68 59l-.002.101a7.357 7.357 0 00-1.498-.146c-2.275 0-3.49.88-4.562 1.657C60.912 61.356 60.024 62 58.09 62c-2.055 0-2.979-.656-4.047-1.416-1.074-.764-2.293-1.629-4.543-1.629-2.275 0-3.49.88-4.562 1.657-1.026.744-1.914 1.388-3.849 1.388-2.054 0-2.978-.656-4.047-1.416-1.074-.764-2.292-1.629-4.542-1.629-2.275 0-3.49.88-4.562 1.657-1.026.744-1.914 1.388-3.849 1.388-2.054 0-2.978-.656-4.047-1.416-1.074-.764-2.292-1.629-4.542-1.629-.559 0-1.053.054-1.498.146L14 59c0-7.443 3.028-14.193 7.917-19.083l-.008-.008zM41 86c-12.115 0-22.391-8.021-25.799-19.031.099-.005.193-.014.299-.014 1.612 0 2.394.556 3.384 1.259 1.178.838 2.512 1.786 5.205 1.786 2.583 0 3.88-.939 5.023-1.769.983-.713 1.76-1.276 3.387-1.276 1.612 0 2.394.556 3.384 1.259 1.179.838 2.513 1.786 5.206 1.786 2.583 0 3.879-.939 5.024-1.769.982-.713 1.76-1.276 3.387-1.276 1.612 0 2.395.556 3.384 1.259C54.062 69.052 55.396 70 58.09 70c2.583 0 3.879-.939 5.023-1.769.982-.713 1.76-1.276 3.387-1.276.105 0 .199.009.299.014C63.391 77.979 53.115 86 41 86z"></path></g><!----></svg>